<mxfile host="app.diagrams.net" agent="Mozilla/5.0 (Windows NT 10.0; Win64; x64) AppleWebKit/537.36 (KHTML, like Gecko) Chrome/129.0.0.0 Safari/537.36" version="24.7.17">
  <diagram name="Page-1" id="Qy-7gDX8mmkscQBq94O4">
    <mxGraphModel dx="2068" dy="916" grid="1" gridSize="10" guides="1" tooltips="1" connect="1" arrows="1" fold="1" page="1" pageScale="1" pageWidth="827" pageHeight="1169" math="0" shadow="0">
      <root>
        <mxCell id="0" />
        <mxCell id="1" parent="0" />
        <mxCell id="6ILt-asc4Zmt36AAIEWz-51" value="Mulai" style="whiteSpace=wrap;strokeWidth=2;" vertex="1" parent="1">
          <mxGeometry x="2474" y="20" width="98" height="49" as="geometry" />
        </mxCell>
        <mxCell id="6ILt-asc4Zmt36AAIEWz-52" value="Pilih Menu" style="rhombus;strokeWidth=2;whiteSpace=wrap;" vertex="1" parent="1">
          <mxGeometry x="2463" y="119" width="122" height="122" as="geometry" />
        </mxCell>
        <mxCell id="6ILt-asc4Zmt36AAIEWz-53" value="Login" style="whiteSpace=wrap;strokeWidth=2;" vertex="1" parent="1">
          <mxGeometry x="1046" y="294" width="98" height="49" as="geometry" />
        </mxCell>
        <mxCell id="6ILt-asc4Zmt36AAIEWz-54" value="Registrasi" style="whiteSpace=wrap;strokeWidth=2;" vertex="1" parent="1">
          <mxGeometry x="2256" y="294" width="128" height="49" as="geometry" />
        </mxCell>
        <mxCell id="6ILt-asc4Zmt36AAIEWz-55" value="Selesai" style="whiteSpace=wrap;strokeWidth=2;" vertex="1" parent="1">
          <mxGeometry x="2446" y="294" width="109" height="49" as="geometry" />
        </mxCell>
        <mxCell id="6ILt-asc4Zmt36AAIEWz-56" value="Masukkan Username dan Password" style="whiteSpace=wrap;strokeWidth=2;" vertex="1" parent="1">
          <mxGeometry x="20" y="393" width="236" height="66" as="geometry" />
        </mxCell>
        <mxCell id="6ILt-asc4Zmt36AAIEWz-57" value="Validasi" style="rhombus;strokeWidth=2;whiteSpace=wrap;" vertex="1" parent="1">
          <mxGeometry x="1295" y="533" width="104" height="104" as="geometry" />
        </mxCell>
        <mxCell id="6ILt-asc4Zmt36AAIEWz-58" value="Role" style="rhombus;strokeWidth=2;whiteSpace=wrap;" vertex="1" parent="1">
          <mxGeometry x="1307" y="751" width="79" height="79" as="geometry" />
        </mxCell>
        <mxCell id="6ILt-asc4Zmt36AAIEWz-59" value="Menu Admin" style="whiteSpace=wrap;strokeWidth=2;" vertex="1" parent="1">
          <mxGeometry x="793" y="937" width="147" height="49" as="geometry" />
        </mxCell>
        <mxCell id="6ILt-asc4Zmt36AAIEWz-60" value="Menu Pengguna" style="whiteSpace=wrap;strokeWidth=2;" vertex="1" parent="1">
          <mxGeometry x="1433" y="937" width="171" height="49" as="geometry" />
        </mxCell>
        <mxCell id="6ILt-asc4Zmt36AAIEWz-61" value="Pilih Menu Admin" style="rhombus;strokeWidth=2;whiteSpace=wrap;" vertex="1" parent="1">
          <mxGeometry x="372" y="1087" width="171" height="171" as="geometry" />
        </mxCell>
        <mxCell id="6ILt-asc4Zmt36AAIEWz-62" value="Tambah Barang" style="whiteSpace=wrap;strokeWidth=2;" vertex="1" parent="1">
          <mxGeometry x="479" y="1323" width="169" height="49" as="geometry" />
        </mxCell>
        <mxCell id="6ILt-asc4Zmt36AAIEWz-63" value="Lihat Barang" style="whiteSpace=wrap;strokeWidth=2;" vertex="1" parent="1">
          <mxGeometry x="699" y="1323" width="150" height="49" as="geometry" />
        </mxCell>
        <mxCell id="6ILt-asc4Zmt36AAIEWz-64" value="Edit Barang" style="whiteSpace=wrap;strokeWidth=2;" vertex="1" parent="1">
          <mxGeometry x="899" y="1323" width="142" height="49" as="geometry" />
        </mxCell>
        <mxCell id="6ILt-asc4Zmt36AAIEWz-65" value="Hapus Barang" style="whiteSpace=wrap;strokeWidth=2;" vertex="1" parent="1">
          <mxGeometry x="1091" y="1323" width="157" height="49" as="geometry" />
        </mxCell>
        <mxCell id="6ILt-asc4Zmt36AAIEWz-66" value="Logout Admin" style="whiteSpace=wrap;strokeWidth=2;" vertex="1" parent="1">
          <mxGeometry x="272" y="1323" width="157" height="49" as="geometry" />
        </mxCell>
        <mxCell id="6ILt-asc4Zmt36AAIEWz-67" value="Pilih Menu Pengguna" style="rhombus;strokeWidth=2;whiteSpace=wrap;" vertex="1" parent="1">
          <mxGeometry x="1257" y="1075" width="194" height="194" as="geometry" />
        </mxCell>
        <mxCell id="6ILt-asc4Zmt36AAIEWz-68" value="Lihat Barang" style="whiteSpace=wrap;strokeWidth=2;" vertex="1" parent="1">
          <mxGeometry x="1328" y="1323" width="150" height="49" as="geometry" />
        </mxCell>
        <mxCell id="6ILt-asc4Zmt36AAIEWz-69" value="Beli Barang" style="whiteSpace=wrap;strokeWidth=2;" vertex="1" parent="1">
          <mxGeometry x="1528" y="1323" width="141" height="49" as="geometry" />
        </mxCell>
        <mxCell id="6ILt-asc4Zmt36AAIEWz-70" value="Logout Pengguna" style="whiteSpace=wrap;strokeWidth=2;" vertex="1" parent="1">
          <mxGeometry x="1719" y="1323" width="181" height="49" as="geometry" />
        </mxCell>
        <mxCell id="6ILt-asc4Zmt36AAIEWz-71" value="Masukkan Username Baru" style="whiteSpace=wrap;strokeWidth=2;" vertex="1" parent="1">
          <mxGeometry x="2094" y="402" width="242" height="49" as="geometry" />
        </mxCell>
        <mxCell id="6ILt-asc4Zmt36AAIEWz-72" value="Cek Username" style="rhombus;strokeWidth=2;whiteSpace=wrap;" vertex="1" parent="1">
          <mxGeometry x="2244" y="509" width="151" height="151" as="geometry" />
        </mxCell>
        <mxCell id="6ILt-asc4Zmt36AAIEWz-73" value="Masukkan Password Baru" style="whiteSpace=wrap;strokeWidth=2;" vertex="1" parent="1">
          <mxGeometry x="2202" y="766" width="236" height="49" as="geometry" />
        </mxCell>
        <mxCell id="6ILt-asc4Zmt36AAIEWz-74" value="Pilih Akun" style="rhombus;strokeWidth=2;whiteSpace=wrap;" vertex="1" parent="1">
          <mxGeometry x="2261" y="903" width="118" height="118" as="geometry" />
        </mxCell>
        <mxCell id="6ILt-asc4Zmt36AAIEWz-75" value="Registrasi Pengguna" style="whiteSpace=wrap;strokeWidth=2;" vertex="1" parent="1">
          <mxGeometry x="2371" y="1148" width="201" height="49" as="geometry" />
        </mxCell>
        <mxCell id="6ILt-asc4Zmt36AAIEWz-76" value="Registrasi Admin" style="whiteSpace=wrap;strokeWidth=2;" vertex="1" parent="1">
          <mxGeometry x="2631" y="1148" width="177" height="49" as="geometry" />
        </mxCell>
        <mxCell id="6ILt-asc4Zmt36AAIEWz-77" value="" style="curved=1;startArrow=none;endArrow=block;exitX=0.51;exitY=0.99;entryX=0.5;entryY=0;rounded=0;" edge="1" parent="1" source="6ILt-asc4Zmt36AAIEWz-51" target="6ILt-asc4Zmt36AAIEWz-52">
          <mxGeometry relative="1" as="geometry">
            <Array as="points" />
          </mxGeometry>
        </mxCell>
        <mxCell id="6ILt-asc4Zmt36AAIEWz-78" value="1. Login" style="curved=1;startArrow=none;endArrow=block;exitX=0;exitY=0.53;entryX=0.5;entryY=0.01;rounded=0;" edge="1" parent="1" source="6ILt-asc4Zmt36AAIEWz-52" target="6ILt-asc4Zmt36AAIEWz-53">
          <mxGeometry relative="1" as="geometry">
            <Array as="points">
              <mxPoint x="1095" y="267" />
            </Array>
          </mxGeometry>
        </mxCell>
        <mxCell id="6ILt-asc4Zmt36AAIEWz-79" value="2. Register" style="curved=1;startArrow=none;endArrow=block;exitX=0;exitY=0.71;entryX=0.5;entryY=0.01;rounded=0;" edge="1" parent="1" source="6ILt-asc4Zmt36AAIEWz-52" target="6ILt-asc4Zmt36AAIEWz-54">
          <mxGeometry relative="1" as="geometry">
            <Array as="points">
              <mxPoint x="2320" y="267" />
            </Array>
          </mxGeometry>
        </mxCell>
        <mxCell id="6ILt-asc4Zmt36AAIEWz-80" value="3. Keluar" style="curved=1;startArrow=none;endArrow=block;exitX=0.37;exitY=1;entryX=0.5;entryY=0.01;rounded=0;" edge="1" parent="1" source="6ILt-asc4Zmt36AAIEWz-52" target="6ILt-asc4Zmt36AAIEWz-55">
          <mxGeometry relative="1" as="geometry">
            <Array as="points">
              <mxPoint x="2501" y="267" />
            </Array>
          </mxGeometry>
        </mxCell>
        <mxCell id="6ILt-asc4Zmt36AAIEWz-81" value="" style="curved=1;startArrow=none;endArrow=block;exitX=0;exitY=0.56;entryX=0.5;entryY=0;rounded=0;" edge="1" parent="1" source="6ILt-asc4Zmt36AAIEWz-53" target="6ILt-asc4Zmt36AAIEWz-56">
          <mxGeometry relative="1" as="geometry">
            <Array as="points">
              <mxPoint x="138" y="368" />
            </Array>
          </mxGeometry>
        </mxCell>
        <mxCell id="6ILt-asc4Zmt36AAIEWz-82" value="" style="curved=1;startArrow=none;endArrow=block;exitX=0.5;exitY=1.01;entryX=0;entryY=0.46;rounded=0;" edge="1" parent="1" source="6ILt-asc4Zmt36AAIEWz-56" target="6ILt-asc4Zmt36AAIEWz-57">
          <mxGeometry relative="1" as="geometry">
            <Array as="points">
              <mxPoint x="138" y="484" />
            </Array>
          </mxGeometry>
        </mxCell>
        <mxCell id="6ILt-asc4Zmt36AAIEWz-83" value="Username dan Password Benar" style="curved=1;startArrow=none;endArrow=block;exitX=0.5;exitY=1;entryX=0.5;entryY=-0.01;rounded=0;" edge="1" parent="1" source="6ILt-asc4Zmt36AAIEWz-57" target="6ILt-asc4Zmt36AAIEWz-58">
          <mxGeometry relative="1" as="geometry">
            <Array as="points" />
          </mxGeometry>
        </mxCell>
        <mxCell id="6ILt-asc4Zmt36AAIEWz-84" value="Username atau Password Salah" style="curved=1;startArrow=none;endArrow=block;exitX=1;exitY=0.42;entryX=1;entryY=0.56;rounded=0;" edge="1" parent="1" source="6ILt-asc4Zmt36AAIEWz-57" target="6ILt-asc4Zmt36AAIEWz-53">
          <mxGeometry relative="1" as="geometry">
            <Array as="points">
              <mxPoint x="1968" y="484" />
              <mxPoint x="1968" y="368" />
            </Array>
          </mxGeometry>
        </mxCell>
        <mxCell id="6ILt-asc4Zmt36AAIEWz-85" value="Admin" style="curved=1;startArrow=none;endArrow=block;exitX=0;exitY=0.58;entryX=0.5;entryY=0.01;rounded=0;" edge="1" parent="1" source="6ILt-asc4Zmt36AAIEWz-58" target="6ILt-asc4Zmt36AAIEWz-59">
          <mxGeometry relative="1" as="geometry">
            <Array as="points">
              <mxPoint x="867" y="866" />
            </Array>
          </mxGeometry>
        </mxCell>
        <mxCell id="6ILt-asc4Zmt36AAIEWz-86" value="Pengguna" style="curved=1;startArrow=none;endArrow=block;exitX=1.01;exitY=0.72;entryX=0.5;entryY=0.01;rounded=0;" edge="1" parent="1" source="6ILt-asc4Zmt36AAIEWz-58" target="6ILt-asc4Zmt36AAIEWz-60">
          <mxGeometry relative="1" as="geometry">
            <Array as="points">
              <mxPoint x="1518" y="866" />
            </Array>
          </mxGeometry>
        </mxCell>
        <mxCell id="6ILt-asc4Zmt36AAIEWz-87" value="" style="curved=1;startArrow=none;endArrow=block;exitX=0;exitY=0.82;entryX=0.5;entryY=0;rounded=0;" edge="1" parent="1" source="6ILt-asc4Zmt36AAIEWz-59" target="6ILt-asc4Zmt36AAIEWz-61">
          <mxGeometry relative="1" as="geometry">
            <Array as="points">
              <mxPoint x="457" y="1048" />
            </Array>
          </mxGeometry>
        </mxCell>
        <mxCell id="6ILt-asc4Zmt36AAIEWz-88" value="1. Tambah Barang" style="curved=1;startArrow=none;endArrow=block;exitX=0.3;exitY=1;entryX=0.07;entryY=0;rounded=0;" edge="1" parent="1" source="6ILt-asc4Zmt36AAIEWz-61" target="6ILt-asc4Zmt36AAIEWz-62">
          <mxGeometry relative="1" as="geometry">
            <Array as="points">
              <mxPoint x="408" y="1296" />
            </Array>
          </mxGeometry>
        </mxCell>
        <mxCell id="6ILt-asc4Zmt36AAIEWz-89" value="2. Lihat Barang" style="curved=1;startArrow=none;endArrow=block;exitX=0.77;exitY=1;entryX=0;entryY=0.18;rounded=0;" edge="1" parent="1" source="6ILt-asc4Zmt36AAIEWz-61" target="6ILt-asc4Zmt36AAIEWz-63">
          <mxGeometry relative="1" as="geometry">
            <Array as="points">
              <mxPoint x="525" y="1296" />
            </Array>
          </mxGeometry>
        </mxCell>
        <mxCell id="6ILt-asc4Zmt36AAIEWz-90" value="3. Edit Barang" style="curved=1;startArrow=none;endArrow=block;exitX=1;exitY=0.84;entryX=0;entryY=0.28;rounded=0;" edge="1" parent="1" source="6ILt-asc4Zmt36AAIEWz-61" target="6ILt-asc4Zmt36AAIEWz-64">
          <mxGeometry relative="1" as="geometry">
            <Array as="points">
              <mxPoint x="636" y="1296" />
            </Array>
          </mxGeometry>
        </mxCell>
        <mxCell id="6ILt-asc4Zmt36AAIEWz-91" value="4. Hapus Barang" style="curved=1;startArrow=none;endArrow=block;exitX=1;exitY=0.71;entryX=0;entryY=0.3;rounded=0;" edge="1" parent="1" source="6ILt-asc4Zmt36AAIEWz-61" target="6ILt-asc4Zmt36AAIEWz-65">
          <mxGeometry relative="1" as="geometry">
            <Array as="points">
              <mxPoint x="748" y="1296" />
            </Array>
          </mxGeometry>
        </mxCell>
        <mxCell id="6ILt-asc4Zmt36AAIEWz-92" value="5. Logout" style="curved=1;startArrow=none;endArrow=block;exitX=1;exitY=0.69;entryX=1;entryY=0.3;rounded=0;" edge="1" parent="1" source="6ILt-asc4Zmt36AAIEWz-61" target="6ILt-asc4Zmt36AAIEWz-66">
          <mxGeometry relative="1" as="geometry">
            <Array as="points">
              <mxPoint x="772" y="1296" />
            </Array>
          </mxGeometry>
        </mxCell>
        <mxCell id="6ILt-asc4Zmt36AAIEWz-93" value="" style="curved=1;startArrow=none;endArrow=block;exitX=1;exitY=0.23;entryX=0.54;entryY=1;rounded=0;" edge="1" parent="1" source="6ILt-asc4Zmt36AAIEWz-62" target="6ILt-asc4Zmt36AAIEWz-59">
          <mxGeometry relative="1" as="geometry">
            <Array as="points">
              <mxPoint x="890" y="1296" />
              <mxPoint x="890" y="1048" />
            </Array>
          </mxGeometry>
        </mxCell>
        <mxCell id="6ILt-asc4Zmt36AAIEWz-94" value="" style="curved=1;startArrow=none;endArrow=block;exitX=1;exitY=0.16;entryX=0.77;entryY=1;rounded=0;" edge="1" parent="1" source="6ILt-asc4Zmt36AAIEWz-63" target="6ILt-asc4Zmt36AAIEWz-59">
          <mxGeometry relative="1" as="geometry">
            <Array as="points">
              <mxPoint x="1004" y="1296" />
              <mxPoint x="1004" y="1048" />
            </Array>
          </mxGeometry>
        </mxCell>
        <mxCell id="6ILt-asc4Zmt36AAIEWz-95" value="" style="curved=1;startArrow=none;endArrow=block;exitX=0.97;exitY=0;entryX=0.97;entryY=1;rounded=0;" edge="1" parent="1" source="6ILt-asc4Zmt36AAIEWz-64" target="6ILt-asc4Zmt36AAIEWz-59">
          <mxGeometry relative="1" as="geometry">
            <Array as="points">
              <mxPoint x="1112" y="1296" />
              <mxPoint x="1112" y="1048" />
            </Array>
          </mxGeometry>
        </mxCell>
        <mxCell id="6ILt-asc4Zmt36AAIEWz-96" value="" style="curved=1;startArrow=none;endArrow=block;exitX=0.66;exitY=0;entryX=1;entryY=0.87;rounded=0;" edge="1" parent="1" source="6ILt-asc4Zmt36AAIEWz-65" target="6ILt-asc4Zmt36AAIEWz-59">
          <mxGeometry relative="1" as="geometry">
            <Array as="points">
              <mxPoint x="1222" y="1296" />
              <mxPoint x="1222" y="1048" />
            </Array>
          </mxGeometry>
        </mxCell>
        <mxCell id="6ILt-asc4Zmt36AAIEWz-97" value="" style="curved=1;startArrow=none;endArrow=block;exitX=0.32;exitY=0;entryX=0;entryY=0.57;rounded=0;" edge="1" parent="1" source="6ILt-asc4Zmt36AAIEWz-66" target="6ILt-asc4Zmt36AAIEWz-53">
          <mxGeometry relative="1" as="geometry">
            <Array as="points">
              <mxPoint x="291" y="1296" />
              <mxPoint x="291" y="368" />
            </Array>
          </mxGeometry>
        </mxCell>
        <mxCell id="6ILt-asc4Zmt36AAIEWz-98" value="" style="curved=1;startArrow=none;endArrow=block;exitX=0.23;exitY=1;entryX=0.5;entryY=0;rounded=0;" edge="1" parent="1" source="6ILt-asc4Zmt36AAIEWz-60" target="6ILt-asc4Zmt36AAIEWz-67">
          <mxGeometry relative="1" as="geometry">
            <Array as="points">
              <mxPoint x="1354" y="1048" />
            </Array>
          </mxGeometry>
        </mxCell>
        <mxCell id="6ILt-asc4Zmt36AAIEWz-99" value="1. Lihat Barang" style="curved=1;startArrow=none;endArrow=block;exitX=0.21;exitY=1;entryX=0.12;entryY=0;rounded=0;" edge="1" parent="1" source="6ILt-asc4Zmt36AAIEWz-67" target="6ILt-asc4Zmt36AAIEWz-68">
          <mxGeometry relative="1" as="geometry">
            <Array as="points">
              <mxPoint x="1282" y="1296" />
            </Array>
          </mxGeometry>
        </mxCell>
        <mxCell id="6ILt-asc4Zmt36AAIEWz-100" value="2. Beli Barang" style="curved=1;startArrow=none;endArrow=block;exitX=0.82;exitY=1;entryX=0;entryY=0.05;rounded=0;" edge="1" parent="1" source="6ILt-asc4Zmt36AAIEWz-67" target="6ILt-asc4Zmt36AAIEWz-69">
          <mxGeometry relative="1" as="geometry">
            <Array as="points">
              <mxPoint x="1434" y="1296" />
            </Array>
          </mxGeometry>
        </mxCell>
        <mxCell id="6ILt-asc4Zmt36AAIEWz-101" value="3. Logout" style="curved=1;startArrow=none;endArrow=block;exitX=1;exitY=0.81;entryX=0;entryY=0.13;rounded=0;" edge="1" parent="1" source="6ILt-asc4Zmt36AAIEWz-67" target="6ILt-asc4Zmt36AAIEWz-70">
          <mxGeometry relative="1" as="geometry">
            <Array as="points">
              <mxPoint x="1552" y="1296" />
            </Array>
          </mxGeometry>
        </mxCell>
        <mxCell id="6ILt-asc4Zmt36AAIEWz-102" value="" style="curved=1;startArrow=none;endArrow=block;exitX=1;exitY=0.13;entryX=0.66;entryY=1;rounded=0;" edge="1" parent="1" source="6ILt-asc4Zmt36AAIEWz-68" target="6ILt-asc4Zmt36AAIEWz-60">
          <mxGeometry relative="1" as="geometry">
            <Array as="points">
              <mxPoint x="1617" y="1296" />
              <mxPoint x="1617" y="1048" />
            </Array>
          </mxGeometry>
        </mxCell>
        <mxCell id="6ILt-asc4Zmt36AAIEWz-103" value="" style="curved=1;startArrow=none;endArrow=block;exitX=0.98;exitY=0;entryX=0.87;entryY=1;rounded=0;" edge="1" parent="1" source="6ILt-asc4Zmt36AAIEWz-69" target="6ILt-asc4Zmt36AAIEWz-60">
          <mxGeometry relative="1" as="geometry">
            <Array as="points">
              <mxPoint x="1742" y="1296" />
              <mxPoint x="1742" y="1048" />
            </Array>
          </mxGeometry>
        </mxCell>
        <mxCell id="6ILt-asc4Zmt36AAIEWz-104" value="" style="curved=1;startArrow=none;endArrow=block;exitX=0.62;exitY=0;entryX=1;entryY=0.57;rounded=0;" edge="1" parent="1" source="6ILt-asc4Zmt36AAIEWz-70" target="6ILt-asc4Zmt36AAIEWz-53">
          <mxGeometry relative="1" as="geometry">
            <Array as="points">
              <mxPoint x="1857" y="1296" />
              <mxPoint x="1857" y="368" />
            </Array>
          </mxGeometry>
        </mxCell>
        <mxCell id="6ILt-asc4Zmt36AAIEWz-105" value="" style="curved=1;startArrow=none;endArrow=block;exitX=0.09;exitY=1;entryX=0.5;entryY=0;rounded=0;" edge="1" parent="1" source="6ILt-asc4Zmt36AAIEWz-54" target="6ILt-asc4Zmt36AAIEWz-71">
          <mxGeometry relative="1" as="geometry">
            <Array as="points">
              <mxPoint x="2215" y="368" />
            </Array>
          </mxGeometry>
        </mxCell>
        <mxCell id="6ILt-asc4Zmt36AAIEWz-106" value="" style="curved=1;startArrow=none;endArrow=block;exitX=0.5;exitY=0.99;entryX=0;entryY=0.02;rounded=0;" edge="1" parent="1" source="6ILt-asc4Zmt36AAIEWz-71" target="6ILt-asc4Zmt36AAIEWz-72">
          <mxGeometry relative="1" as="geometry">
            <Array as="points">
              <mxPoint x="2215" y="484" />
            </Array>
          </mxGeometry>
        </mxCell>
        <mxCell id="6ILt-asc4Zmt36AAIEWz-107" value="Tersedia" style="curved=1;startArrow=none;endArrow=block;exitX=0.5;exitY=1;entryX=0.5;entryY=0;rounded=0;" edge="1" parent="1" source="6ILt-asc4Zmt36AAIEWz-72" target="6ILt-asc4Zmt36AAIEWz-73">
          <mxGeometry relative="1" as="geometry">
            <Array as="points" />
          </mxGeometry>
        </mxCell>
        <mxCell id="6ILt-asc4Zmt36AAIEWz-108" value="Tidak Tersedia" style="curved=1;startArrow=none;endArrow=block;exitX=1;exitY=0.02;entryX=0.9;entryY=1;rounded=0;" edge="1" parent="1" source="6ILt-asc4Zmt36AAIEWz-72" target="6ILt-asc4Zmt36AAIEWz-54">
          <mxGeometry relative="1" as="geometry">
            <Array as="points">
              <mxPoint x="2425" y="484" />
              <mxPoint x="2425" y="368" />
            </Array>
          </mxGeometry>
        </mxCell>
        <mxCell id="6ILt-asc4Zmt36AAIEWz-109" value="" style="curved=1;startArrow=none;endArrow=block;exitX=0.5;exitY=0.99;entryX=0.5;entryY=0;rounded=0;" edge="1" parent="1" source="6ILt-asc4Zmt36AAIEWz-73" target="6ILt-asc4Zmt36AAIEWz-74">
          <mxGeometry relative="1" as="geometry">
            <Array as="points" />
          </mxGeometry>
        </mxCell>
        <mxCell id="6ILt-asc4Zmt36AAIEWz-110" value="1. Pengguna" style="curved=1;startArrow=none;endArrow=block;exitX=0;exitY=0.66;entryX=0.09;entryY=-0.01;rounded=0;" edge="1" parent="1" source="6ILt-asc4Zmt36AAIEWz-74" target="6ILt-asc4Zmt36AAIEWz-75">
          <mxGeometry relative="1" as="geometry">
            <Array as="points">
              <mxPoint x="2047" y="1048" />
            </Array>
          </mxGeometry>
        </mxCell>
        <mxCell id="6ILt-asc4Zmt36AAIEWz-111" value="2. Admin" style="curved=1;startArrow=none;endArrow=block;exitX=1;exitY=0.83;entryX=0.2;entryY=-0.01;rounded=0;" edge="1" parent="1" source="6ILt-asc4Zmt36AAIEWz-74" target="6ILt-asc4Zmt36AAIEWz-76">
          <mxGeometry relative="1" as="geometry">
            <Array as="points">
              <mxPoint x="2450" y="1048" />
            </Array>
          </mxGeometry>
        </mxCell>
        <mxCell id="6ILt-asc4Zmt36AAIEWz-112" value="" style="curved=1;startArrow=none;endArrow=block;exitX=0.62;exitY=-0.01;entryX=0.88;entryY=1;rounded=0;" edge="1" parent="1" source="6ILt-asc4Zmt36AAIEWz-75" target="6ILt-asc4Zmt36AAIEWz-52">
          <mxGeometry relative="1" as="geometry">
            <Array as="points">
              <mxPoint x="2591" y="1048" />
              <mxPoint x="2591" y="267" />
            </Array>
          </mxGeometry>
        </mxCell>
        <mxCell id="6ILt-asc4Zmt36AAIEWz-113" value="" style="curved=1;startArrow=none;endArrow=block;exitX=0.5;exitY=-0.01;entryX=1;entryY=0.72;rounded=0;" edge="1" parent="1" source="6ILt-asc4Zmt36AAIEWz-76" target="6ILt-asc4Zmt36AAIEWz-52">
          <mxGeometry relative="1" as="geometry">
            <Array as="points">
              <mxPoint x="2720" y="267" />
            </Array>
          </mxGeometry>
        </mxCell>
      </root>
    </mxGraphModel>
  </diagram>
</mxfile>
